<svg width="161" height="22" viewBox="0 0 161 22" fill="none" xmlns="http://www.w3.org/2000/svg">
<path fill-rule="evenodd" clip-rule="evenodd" d="M10.7616 0.238403C4.81813 0.238403 0 5.05653 0 11C0 16.9435 4.81813 21.7616 10.7616 21.7616H150.003C155.947 21.7616 160.765 16.9435 160.765 11C160.765 5.05653 155.947 0.238403 150.003 0.238403H10.7616ZM61.9835 15.3263C62.4076 15.541 62.9974 15.6471 63.7515 15.6471L63.7555 15.6444H68.1835C69.0649 15.6444 69.7382 15.6007 70.206 15.5159C70.6725 15.431 70.9946 15.3356 71.1695 15.2283C71.3445 15.1222 71.432 15.0414 71.432 14.9884L70.7786 13.9321C70.5453 13.9758 69.9423 14.0156 68.9708 14.0527C67.9993 14.0898 66.6315 14.1083 64.8688 14.1083H64.2154C63.7383 14.1083 63.4056 14.0103 63.22 13.8128C63.0345 13.6153 62.9417 13.3356 62.9417 12.9725V8.8904C62.9417 8.1323 63.3658 7.75324 64.2154 7.75324H65.0278C66.7163 7.75324 68.0033 7.7718 68.8899 7.80891C69.7766 7.84735 70.3107 7.8818 70.491 7.91361L70.809 6.58561C70.809 6.50078 70.6142 6.41729 70.2272 6.33776C69.8389 6.25692 69.2796 6.21716 68.5467 6.21716H63.7528C62.7217 6.21716 61.9782 6.46102 61.5223 6.9461C61.065 7.43118 60.8371 8.18664 60.8371 9.21114V12.7803C60.8371 13.4112 60.9219 13.9387 61.0915 14.3654C61.2612 14.7935 61.5581 15.1129 61.9835 15.3263ZM28.2322 7.51594V15.647L28.2335 15.6483H30.3355V12.5907C30.6218 12.6119 31.0538 12.6384 31.633 12.6702C32.2109 12.7021 32.8351 12.718 33.5044 12.718H35.1293C35.7456 12.718 36.2453 12.6252 36.627 12.4383C37.0087 12.2528 37.3016 12.0168 37.503 11.7345C37.7045 11.4522 37.8423 11.158 37.9165 10.8545C37.9908 10.551 38.0279 10.2753 38.0279 10.0301V9.08516C38.0279 8.78563 38.0014 8.47152 37.9483 8.14018C37.8953 7.80884 37.7761 7.49738 37.5905 7.20315C37.405 6.91025 37.1174 6.67301 36.7303 6.49144C36.342 6.31119 35.8092 6.21974 35.1293 6.21974H28.0731L28.2322 7.51594ZM34.6668 11.1805H30.3342V7.7545H34.6827C35.1492 7.7545 35.4739 7.87246 35.6542 8.10705C35.8344 8.34163 35.9245 8.62924 35.9245 8.97118V9.97977C35.9245 10.3111 35.8344 10.5934 35.6542 10.828C35.4739 11.0626 35.1452 11.1805 34.6668 11.1805ZM11.4427 15.5515C11.7833 15.6151 12.3134 15.6469 13.0357 15.6469H18.3226C19.3312 15.6469 20.0389 15.4004 20.4485 14.91C20.858 14.4197 21.0621 13.7742 21.0621 12.9737V12.7179C21.0621 12.0035 20.9349 11.4615 20.6804 11.093C20.4259 10.7246 20.0601 10.4714 19.5817 10.3323C19.1045 10.1931 18.5254 10.1242 17.8455 10.1242H14.3094C13.8535 10.1242 13.5261 10.0367 13.33 9.86043C13.1338 9.68416 13.0357 9.42041 13.0357 9.06787V8.79617C13.045 8.49664 13.1365 8.2488 13.3061 8.05132C13.4758 7.85517 13.8044 7.75577 14.2935 7.75577L14.4684 7.77167C16.1145 7.77167 17.4266 7.79023 18.4034 7.82734C19.3802 7.86577 20.0071 7.90023 20.2828 7.93204L20.6009 6.5868C20.6009 6.50198 20.3782 6.42113 19.9316 6.34691C19.4849 6.27137 18.9018 6.23426 18.1794 6.23426H13.8469C13.1033 6.23426 12.5188 6.35487 12.0947 6.59476C11.6693 6.83597 11.3698 7.15273 11.1948 7.54769C11.0199 7.94264 10.9324 8.37471 10.9324 8.84389V9.09968C10.9324 10.0075 11.1763 10.6609 11.6653 11.0612C12.1544 11.4615 12.935 11.6616 14.0072 11.6616H17.7023C18.2325 11.6616 18.5757 11.7411 18.7295 11.9015C18.8832 12.0618 18.9601 12.3282 18.9601 12.702V13.0227C18.9601 13.4177 18.8647 13.6973 18.6738 13.863C18.483 14.0287 18.1582 14.1108 17.7023 14.1108H17.4001C15.701 14.1108 14.3651 14.0923 13.3936 14.0552C12.4221 14.0167 11.8138 13.977 11.5699 13.9346L10.9324 15.3275C10.9324 15.4123 11.1034 15.4879 11.4427 15.5515ZM42.8059 15.6469L47.4724 6.23426H50.6109L55.2616 15.6469H52.8083L51.8687 13.6138H46.1656L45.1305 15.6469H42.8059ZM46.7422 12.0459H51.2802L49.0987 7.67625H48.9396L46.7422 12.0459ZM77.8007 15.6469V6.23426H87.7077V7.77035H79.9027V9.97972H85.8602V11.5648H79.9027V14.1095H87.7713L88.4088 15.4707C88.4088 15.5131 88.2657 15.5528 87.9794 15.5913C87.6931 15.6284 87.1988 15.6469 86.4977 15.6469H77.8007ZM97.966 7.75583L97.9819 15.647H100.084V7.75583H104.242V6.21974H93.8242V7.75583H97.966ZM110.612 15.6469V6.23426H112.714V15.6469H110.612ZM120.202 7.51606V15.6471L120.203 15.6484H122.305V9.67771H122.464L123.101 11.0707L125.108 14.6889H127.035L129.042 11.0707L129.663 9.67771H129.838V15.6484H131.94V6.23576H129.791L126.064 12.6386L122.464 6.23576H120.043L120.202 7.51606ZM139.268 15.6469V6.23426H149.175V7.77035H141.37V9.97972H147.327V11.5648H141.37V14.1095H149.238L149.876 15.4707C149.876 15.5131 149.733 15.5528 149.447 15.5913C149.16 15.6284 148.666 15.6469 147.965 15.6469H139.268Z" fill="url(#paint0_linear_19_262)"/>
<defs>
<linearGradient id="paint0_linear_19_262" x1="12.8968" y1="0.238404" x2="152.054" y2="96.8237" gradientUnits="userSpaceOnUse">
<stop offset="0.251308" stop-color="#996DFF"/>
<stop offset="0.623787" stop-color="#FF876E"/>
<stop offset="1" stop-color="#FFD072"/>
</linearGradient>
</defs>
</svg>
